<?xml version="1.0" encoding="UTF-8" standalone="no"?><!DOCTYPE svg PUBLIC "-//W3C//DTD SVG 1.1//EN" "http://www.w3.org/Graphics/SVG/1.1/DTD/svg11.dtd"><svg width="100%" height="100%" viewBox="0 0 934 1563" version="1.1" xmlns="http://www.w3.org/2000/svg" xmlns:xlink="http://www.w3.org/1999/xlink" xml:space="preserve" xmlns:serif="http://www.serif.com/" style="fill-rule:evenodd;clip-rule:evenodd;stroke-linejoin:round;stroke-miterlimit:2;"><rect id="Artboard1" x="-1695.83" y="-241.667" width="4025" height="2058.33" style="fill:none;"/><g><path d="M266.079,144.193c-12.508,21.785 -18.246,28.441 -20.833,24.177c-2.767,-4.552 -5.888,-2.831 -13.825,7.626c-15.542,20.476 -35.384,66.162 -35.384,81.474c0,8.275 -1.745,11.88 -4.762,9.83c-8.437,-5.736 -11.904,8.903 -11.904,50.289c-0,35.293 -0.817,39.772 -6.35,34.726c-12.067,-11.02 -7.183,10.151 8.375,36.29l15.042,25.27l-22.225,-25.05c-12.367,-13.944 -26.18,-31.14 -31.15,-38.775c-4.817,-7.406 -10.301,-12.223 -11.905,-10.457c-1.645,1.802 -3.066,19.167 -3.175,38.774c-0.15,26.579 1.996,40.989 8.525,57.292c9.246,23.088 8.234,25.966 -5.15,14.589c-4.366,-3.71 -9.725,-6.748 -11.908,-6.748c-4.329,0 -4.2,0.874 15.642,107.613c12.712,68.4 39.762,221.178 39.879,225.244c0.021,0.783 -1.233,1.309 -3.138,1.309c-1.762,-0 -6.429,-8.715 -10.495,-19.607c-8.463,-22.653 -42.359,-67.53 -51.013,-67.53c-3.258,-0 -9.796,8.28 -14.45,18.298c-16.021,34.516 -9.633,85.273 22.317,166.747c12.133,30.934 16.75,37.946 29.833,45.312c15.112,8.508 15.413,9.149 12.896,27.447c-1.425,10.339 -3.817,48.793 -5.342,85.829c-2.925,71.011 -0.062,89.772 15.458,101.391c3.93,2.942 17.705,28.875 30.609,57.626c28.158,62.741 30.791,66.36 34.246,47.055c4.208,-23.491 9.912,-16.556 10.033,12.2c0.087,20.042 2.896,32.681 11.425,51.41c6.15,13.504 13.479,24.831 16.071,24.831c3.946,-0 103.054,98.029 110.562,109.355c5.154,7.782 7.375,-5.663 3.45,-20.91c-7.591,-29.502 -3.695,-28.756 27.255,5.229c25.795,28.316 33.333,34.09 45.241,34.629c12.613,0.577 17.529,-3.261 42.063,-32.886c15.15,-18.299 29.308,-33.647 31.15,-33.766c1.875,-0.123 1.608,10.238 -0.596,23.308c-2.204,13.07 -3.263,24.3 -2.379,25.27c0.87,0.956 26.387,-24.703 56.545,-56.858c30.159,-32.154 54.963,-55.65 54.963,-52.063c-0,10.736 9.654,-0.869 20.3,-24.396c5.233,-11.57 10.879,-34.639 12.633,-51.629c2.884,-27.883 3.488,-29.328 6.55,-15.682c1.859,8.275 4.888,14.442 6.746,13.724c1.863,-0.723 15.442,-28.102 30.358,-61.213c18.838,-41.826 29.496,-60.646 35.317,-62.347c15.304,-4.483 19.138,-34.159 13.413,-103.867c-2.792,-33.98 -6.063,-69.524 -7.263,-78.857c-2.017,-15.681 -1.112,-17.484 11.704,-23.389c15.838,-7.297 21.571,-22.236 43.28,-84.977c23.066,-66.656 23.641,-118.248 1.562,-140.284c-8.729,-8.715 -8.729,-8.715 -27.379,13.939c-10.4,12.635 -22.542,30.942 -27.45,41.391c-12.421,26.45 -13.267,15.247 -2.95,-39.214c24.916,-131.57 29.208,-159.219 29.208,-188.208c0,-28.321 -0.904,-31.729 -9.325,-35.074l-9.325,-3.705l9.125,-5.343c10.717,-6.272 38.496,-45.174 38.496,-53.907c-0,-4.222 -3.175,-5.243 -10.321,-3.312c-12.471,3.367 -12.691,1.569 -2.175,-17.599c4.542,-8.28 8.171,-18.275 8.221,-22.658c0.133,-11.605 -19.138,-34.515 -34.221,-40.672c-9.925,-4.054 -19.417,-15.527 -35.912,-43.413c-12.367,-20.911 -33.892,-50.792 -48.013,-66.657l-25.596,-28.756l-1.983,50.106l-1.988,50.101l-11.704,-26.139c-6.437,-14.378 -17.42,-31.359 -24.404,-37.741c-18.054,-16.487 -63.491,-44.771 -95.237,-59.282c-14.825,-6.775 -39.684,-19.401 -55.159,-28.02c-15.479,-8.613 -29.25,-15.681 -30.558,-15.681c-4.167,-0 2.967,20.041 13.642,38.34c5.591,9.583 9.366,18.307 8.383,19.387c-0.971,1.065 -11.112,-2.512 -22.221,-7.841c-11.187,-5.366 -47.025,-20.751 -79.166,-33.985c-32.146,-13.234 -64.659,-27.534 -71.825,-31.588l-13.096,-7.406l-17.263,30.064Zm191.467,102.819c36.829,26.958 57.8,60.993 67.104,108.917c8.033,41.391 -4.433,74.36 -36.15,95.609c-21.825,14.625 -24.242,12.859 -9.796,-7.164c6.917,-9.588 14.546,-23.115 16.958,-30.064c8.78,-25.27 2.771,-67.695 -12.704,-89.749l-7.95,-11.327l2.675,28.756c3.121,33.546 -4.804,61.899 -22.121,79.127c-9.92,9.872 -10.779,10.078 -7.995,1.907c20.92,-61.432 13.537,-119.831 -22.692,-179.498c-8.729,-14.378 -8.75,-14.812 -0.663,-14.812c4.63,-0 19.446,8.133 33.334,18.298Zm146.825,23.207c30.637,32.26 38.15,77 18.708,111.414c-11.562,20.481 -11.562,20.481 -10.692,-21.345c0.784,-37.47 -10.079,-67.297 -36.808,-101.08c-9.654,-12.196 -17.237,-22.74 -17.237,-23.962c-0,-5.352 27.775,15.751 46.029,34.973Zm96.158,108.368c-9.4,20.457 -27.108,38.39 -50.921,51.56c-9.125,5.046 -16.266,10.243 -16.266,11.83c-0,1.555 10.712,1.51 23.808,-0.101c28.967,-3.568 71.862,-25.695 86.383,-44.556c11.696,-15.197 13.871,-10.458 4.4,9.584c-8.908,18.842 -29.275,34.602 -57.45,44.455c-23.808,8.331 -32.108,19.552 -14.683,19.859c8.467,0.146 8.133,0.988 -2.975,7.571c-6.746,3.998 -13.233,8.111 -14.087,8.934c-0.863,0.823 6.225,12.196 15.475,24.831c13.766,18.806 17.6,28.321 19.841,49.232c1.55,14.483 9.784,43.134 18.65,64.918l15.875,38.994l-3.675,89.31c-3.491,84.959 -7.675,120.132 -23.154,175.461c-12.188,43.569 -20.317,59.795 -40.633,81.14l-20.634,21.679l-15.733,-17.864c-16.467,-18.692 -82.283,-57.072 -107.283,-62.562c-19.446,-4.268 -20.084,-9.35 -1.588,-12.621c27.779,-4.913 37.433,-29.767 20.384,-52.466c-3.996,-5.325 -5.313,-3.271 -7.088,11.107c-2.029,16.386 -3.375,17.909 -18.85,21.349c-9.129,2.027 -20.467,8.628 -25.063,14.593c-12.758,16.556 -23.074,20.65 -36.445,14.47c-6.35,-2.933 -14.354,-9.813 -17.859,-15.339c-3.871,-6.111 -12.695,-11.162 -22.616,-12.946c-16.271,-2.928 -24.871,-14.044 -18.971,-24.524c1.575,-2.795 1.483,-6.972 -0.213,-10.019c-3.975,-7.132 -13.766,13.07 -13.941,28.756c-0.163,14.813 5.741,20.38 25.979,24.502c19.446,3.957 19.95,9.355 1.191,12.749c-25.791,4.662 -92.204,43.377 -108.733,63.39l-15.471,18.733l-19.05,-19.785c-25.925,-26.921 -24.508,-24.218 -38.225,-73.015c-21.408,-76.144 -26.546,-118.384 -26.912,-203.344c-0.329,-76.24 -0.088,-78.491 10.85,-100.641c13.337,-27.008 24.525,-66.757 24.525,-87.132c-0,-10.023 3.879,-20.33 11.308,-30.065c23.613,-30.933 23.613,-30.933 15.279,-37.85c-7.466,-6.198 -7.141,-6.596 5.559,-6.729c17.945,-0.183 17.062,-6.99 -2.384,-18.303c-9.125,-5.311 -12.546,-9.099 -8.333,-9.236c10.096,-0.334 9.525,-10.499 -1.192,-21.149c-4.708,-4.684 -11.65,-14.995 -15.079,-22.401c-6.071,-13.129 -5.554,-12.914 11.909,4.986c23.412,24.003 46.879,42.718 53.57,42.718c7.538,-0 2.984,-16.121 -18.954,-67.096c-10.308,-23.962 -18.208,-44.25 -17.554,-45.092c0.654,-0.837 14.308,20.915 30.354,48.363c16.05,27.447 30.596,49.986 32.342,50.11c6.591,0.471 15.541,-32.031 15.9,-57.736c0.333,-23.962 0.762,-25.224 4.342,-12.85c2.179,7.548 2.983,25.485 1.783,39.863c-1.2,14.378 -0.575,26.139 1.387,26.139c8.567,0 18.205,-36.162 16.263,-60.993c-1.088,-13.943 -0.375,-24.181 1.596,-22.841c5.079,3.454 4.096,60.307 -1.234,71.634c-2.575,5.466 -10.308,16.56 -17.02,24.401l-12.3,14.378l20.633,2.177c11.508,1.212 29.587,7.274 40.875,13.701c40.762,23.202 48.808,23.989 107.933,10.544c81.35,-18.499 108.979,-32.278 132.517,-66.07c6.375,-9.15 15.083,-21.625 19.471,-27.883c7.629,-10.892 7.845,-10.924 5.575,-0.873c-3.954,17.525 6.533,11.326 19.904,-11.762c7.062,-12.2 14.796,-30.796 17.575,-42.26l4.958,-20.476l1.192,21.345c0.804,14.378 -1.488,27.183 -7.017,39.214Zm-553.942,372.935c3.075,6.359 2.3,13.074 -2.87,24.835c-8.617,19.607 -5.58,44.411 7.304,59.69c12.779,15.151 15.387,12.635 9.475,-9.149c-5.8,-21.35 -2.167,-40.083 7.766,-40.083c10.196,-0 10.834,11.327 3.717,66.222c-6.383,49.232 -7.537,57.295 -15.621,56.078c-10.562,-1.587 -25.954,-45.621 -32.187,-87.446c-3.833,-25.705 -1.717,-77.11 3.55,-86.263c2.762,-4.804 12.967,3.92 18.866,16.116Zm648.105,-6.967c1.812,6.875 3.316,28.317 3.3,47.049c-0.071,71.017 -36.975,154.538 -45.23,101.395c-3.925,-25.266 -7.616,-123.421 -4.366,-115.333c1.575,3.92 5.579,9.163 9.15,11.981c5.016,3.957 5.725,10.672 3.375,32.022l-2.979,27.013l8.733,-9.589c13.15,-14.437 17.371,-40.951 9.842,-61.866c-5.8,-16.117 -5.713,-18.473 1.162,-31.369c9.059,-16.99 12.8,-17.278 17.013,-1.303Zm-307.584,260.197c7.146,4.464 12.9,9.712 12.9,11.761c0,2.049 -17.658,3.216 -39.487,2.617c-21.825,-0.604 -39.483,-2.452 -39.483,-4.14c-0,-5.554 26.983,-17.654 40.079,-17.979c7.146,-0.173 18.958,3.345 25.991,7.741Zm89.488,41.391c1.304,4.419 5.246,20.256 8.729,35.069c6.042,25.704 5.954,27.708 -1.787,41.391c-4.438,7.84 -11.742,17.941 -16.071,22.218c-7.617,7.53 -8.571,6.972 -23.809,-13.943c-8.891,-12.196 -23.295,-30.407 -32.737,-41.386l-16.867,-19.607l-71.429,-0l-26.671,34.854c-41.012,53.587 -36.837,51.491 -52.892,26.578c-15.02,-23.312 -14.995,-22.658 -2.9,-68.838l6.276,-23.962l113.887,-0.22c105.158,-0.201 114.071,0.403 116.271,7.846Z" style="fill:#fff;fill-rule:nonzero;"/><path d="M268.658,680.827c-16.27,8.796 -35.316,26.584 -35.316,32.984c-0,3.917 4.762,3.687 19.841,-0.958c22.221,-6.846 62.163,-5.33 82.142,3.125l12.696,5.37l-23.013,3.213c-26.191,3.654 -62.304,17.892 -62.304,24.566c0,2.646 3.175,3.901 7.146,2.826c23.808,-6.455 37.692,-6.73 42.613,-0.842c7.808,9.341 27.225,7.496 40.72,-3.863l11.905,-10.025l20.237,8.863c22.617,9.908 29.879,7.821 39.104,-11.246c10.646,-21.996 2.958,-28.479 -52.2,-44.046c-59.525,-16.796 -86.187,-19.362 -103.571,-9.967Z" style="fill:#fff;fill-rule:nonzero;"/><path d="M555.167,688.657c-54.763,14.85 -63.492,19.233 -63.492,31.9c-0,11.904 11.825,32.537 18.65,32.537c3.267,0 15.079,-3.487 26.192,-7.737l20.237,-7.738l8.746,9.921c10.108,11.467 28.158,13.029 41.65,3.6c7.45,-5.208 12.7,-5.571 28.571,-1.975c20.237,4.587 27.271,3.025 19.842,-4.404c-7.092,-7.092 -50.396,-20.621 -66.667,-20.829c-13.888,-0.175 -14.979,-0.871 -8.729,-5.559c3.941,-2.958 20.037,-7.491 35.912,-10.121c23.413,-3.874 32.5,-3.654 48.808,1.192c11.113,3.3 20.571,5.421 21.23,4.763c3.471,-3.471 -17.855,-24.65 -32.142,-31.917c-21.754,-11.067 -38.492,-9.987 -98.808,6.367Z" style="fill:#fff;fill-rule:nonzero;"/></g></svg>